{
  "accessors": [
    {
      "bufferView": 2,
      "componentType": 5126,
      "count": 5421,
      "max": [
        85.6676025390625,
        323.8323059082031,
        172.76759338378906
      ],
      "min": [
        -104.62370300292969,
        -272.49578857421875,
        5.837500095367432
      ],
      "type": "VEC3"
    },
    {
      "bufferView": 2,
      "byteOffset": 65052,
      "componentType": 5126,
      "count": 5421,
      "max": [
        1.0,
        1.0,
        0.9998390078544617
      ],
      "min": [
        -1.0,
        -1.0,
        -1.0
      ],
      "type": "VEC3"
    },
    {
      "bufferView": 3,
      "componentType": 5126,
      "count": 5421,
      "max": [
        1.0,
        0.9999575018882751,
        0.9999998807907104,
        1.0
      ],
      "min": [
        -1.0,
        -0.9999958872795105,
        -0.9999966025352478,
        -1.0
      ],
      "type": "VEC4"
    },
    {
      "bufferView": 1,
      "componentType": 5126,
      "count": 5421,
      "max": [
        0.9983999729156494,
        0.9983999729156494
      ],
      "min": [
        0.0015999999595806003,
        0.0015999999595806003
      ],
      "type": "VEC2"
    },
    {
      "bufferView": 0,
      "componentType": 5125,
      "count": 19791,
      "type": "SCALAR"
    },
    {
      "bufferView": 2,
      "byteOffset": 130104,
      "componentType": 5126,
      "count": 6130,
      "max": [
        87.83560180664063,
        323.8323059082031,
        174.72740173339844
      ],
      "min": [
        -106.79190063476563,
        -270.1062927246094,
        5.837500095367432
      ],
      "type": "VEC3"
    },
    {
      "bufferView": 2,
      "byteOffset": 203664,
      "componentType": 5126,
      "count": 6130,
      "max": [
        1.0,
        1.0,
        1.0
      ],
      "min": [
        -0.9999841451644897,
        -1.0,
        -0.9978724122047424
      ],
      "type": "VEC3"
    },
    {
      "bufferView": 3,
      "byteOffset": 86736,
      "componentType": 5126,
      "count": 6130,
      "max": [
        1.0,
        1.0,
        1.0,
        1.0
      ],
      "min": [
        -0.9999985098838806,
        -0.9999607801437378,
        -1.0,
        -1.0
      ],
      "type": "VEC4"
    },
    {
      "bufferView": 1,
      "byteOffset": 43368,
      "componentType": 5126,
      "count": 6130,
      "max": [
        0.9980999827384949,
        0.9958000183105469
      ],
      "min": [
        0.0015999999595806003,
        0.0015999999595806003
      ],
      "type": "VEC2"
    },
    {
      "bufferView": 0,
      "byteOffset": 79164,
      "componentType": 5125,
      "count": 24198,
      "type": "SCALAR"
    }
  ],
  "asset": {
    "extras": {
      "author": "ROH3D (https://sketchfab.com/roh3d)",
      "license": "CC-BY-4.0 (http://creativecommons.org/licenses/by/4.0/)",
      "source": "https://sketchfab.com/3d-models/dirty-car-cadillac-75-sedan-1953-e08f2486cc0c49a7a2102561fb9b3377",
      "title": "Dirty Car - Cadillac 75 Sedan 1953"
    },
    "generator": "Sketchfab-13.57.0",
    "version": "2.0"
  },
  "bufferViews": [
    {
      "buffer": 0,
      "byteLength": 175956,
      "name": "floatBufferViews",
      "target": 34963
    },
    {
      "buffer": 0,
      "byteLength": 92408,
      "byteOffset": 175956,
      "byteStride": 8,
      "name": "floatBufferViews",
      "target": 34962
    },
    {
      "buffer": 0,
      "byteLength": 277224,
      "byteOffset": 268364,
      "byteStride": 12,
      "name": "floatBufferViews",
      "target": 34962
    },
    {
      "buffer": 0,
      "byteLength": 184816,
      "byteOffset": 545588,
      "byteStride": 16,
      "name": "floatBufferViews",
      "target": 34962
    }
  ],
  "buffers": [
    {
      "byteLength": 730404,
      "uri": "scene.bin"
    }
  ],
  "images": [
    {
      "uri": "textures/wire_134006006_baseColor.png"
    },
    {
      "uri": "textures/wire_134006006_metallicRoughness.png"
    },
    {
      "uri": "textures/wire_134006006_normal.png"
    }
  ],
  "materials": [
    {
      "alphaMode": "BLEND",
      "doubleSided": true,
      "name": "wire_134006006",
      "normalTexture": {
        "index": 2
      },
      "pbrMetallicRoughness": {
        "baseColorTexture": {
          "index": 0
        },
        "metallicRoughnessTexture": {
          "index": 1
        }
      }
    }
  ],
  "meshes": [
    {
      "name": "Object_0",
      "primitives": [
        {
          "attributes": {
            "NORMAL": 1,
            "POSITION": 0,
            "TANGENT": 2,
            "TEXCOORD_0": 3
          },
          "indices": 4,
          "material": 0,
          "mode": 4
        }
      ]
    },
    {
      "name": "Object_1",
      "primitives": [
        {
          "attributes": {
            "NORMAL": 6,
            "POSITION": 5,
            "TANGENT": 7,
            "TEXCOORD_0": 8
          },
          "indices": 9,
          "material": 0,
          "mode": 4
        }
      ]
    }
  ],
  "nodes": [
    {
      "children": [
        1
      ],
      "matrix": [
        0.0095005352050066,
        0.0,
        0.0,
        0.0,
        0.0,
        2.1095425861720417e-18,
        -0.0095005352050066,
        0.0,
        0.0,
        0.0095005352050066,
        2.1095425861720417e-18,
        0.0,
        0.0,
        0.0,
        0.0,
        1.0
      ],
      "name": "Sketchfab_model"
    },
    {
      "children": [
        2,
        3
      ],
      "name": "FullBody.obj.cleaner.materialmerger.gles"
    },
    {
      "mesh": 0,
      "name": "Object_2"
    },
    {
      "mesh": 1,
      "name": "Object_3"
    }
  ],
  "samplers": [
    {
      "magFilter": 9729,
      "minFilter": 9987,
      "wrapS": 10497,
      "wrapT": 10497
    }
  ],
  "scene": 0,
  "scenes": [
    {
      "name": "Sketchfab_Scene",
      "nodes": [
        0
      ]
    }
  ],
  "textures": [
    {
      "sampler": 0,
      "source": 0
    },
    {
      "sampler": 0,
      "source": 1
    },
    {
      "sampler": 0,
      "source": 2
    }
  ]
}
